<svg xmlns="http://www.w3.org/2000/svg" xmlns:xlink="http://www.w3.org/1999/xlink" viewBox="0,0,256,256" width="40px" height="40px" fill-rule="nonzero"><g fill="none" fill-rule="nonzero" stroke="none" stroke-width="1" stroke-linecap="butt" stroke-linejoin="miter" stroke-miterlimit="10" stroke-dasharray="" stroke-dashoffset="0" font-family="none" font-weight="none" font-size="none" text-anchor="none" style="mix-blend-mode: normal"><g transform="scale(6.4,6.4)"><path d="M20,31.441l-11.5,5.75v-34.691h23v34.691z" fill="#ffffff"></path><path d="M31,3v33.382l-10.553,-5.276l-0.447,-0.224l-0.447,0.224l-10.553,5.276v-33.382h22M32,2h-24v36l12,-6l12,6v-36z" fill="#fffafa"></path><path d="M31,26.5c-4.687,0 -8.5,-3.813 -8.5,-8.5c0,-4.687 3.813,-8.5 8.5,-8.5c4.687,0 8.5,3.813 8.5,8.5c0,4.687 -3.813,8.5 -8.5,8.5z" fill="#000000"></path><path d="M31,10c4.411,0 8,3.589 8,8c0,4.411 -3.589,8 -8,8c-4.411,0 -8,-3.589 -8,-8c0,-4.411 3.589,-8 8,-8M31,9c-4.971,0 -9,4.029 -9,9c0,4.971 4.029,9 9,9c4.971,0 9,-4.029 9,-9c0,-4.971 -4.029,-9 -9,-9z" fill="#a16a4a"></path><rect x="26" y="17" width="10" height="2" fill="#ffffff"></rect></g></g></svg>